<?xml version="1.0" encoding="utf-8"?>
<!-- Generator: Adobe Illustrator 25.2.1, SVG Export Plug-In . SVG Version: 6.00 Build 0)  -->
<svg version="1.1" xmlns="http://www.w3.org/2000/svg" xmlns:xlink="http://www.w3.org/1999/xlink" x="0px" y="0px"
	 viewBox="0 0 500 500" style="enable-background:new 0 0 500 500;" xml:space="preserve">
<style type="text/css">
	.st0{fill:none;stroke:#221F1F;stroke-miterlimit:10;}
	.st1{fill:#49DB45;}
	.st2{fill:#265DF3;}
	.st3{fill:#131933;}
	.st4{fill:#3CBE3A;}
	.st5{fill:#FFFFFF;}
	.st6{fill:#359E32;}
</style>
<g id="Info">
</g>
<g id="HQ">
	<path class="st4" d="M336.34,163.66c-45.75-45.75-119.05-47.51-166.96-5.34c13.67,2.61,27.13,6.54,40.19,11.79
		c33.59-16.96,75.71-11.46,103.74,16.57s33.53,70.15,16.57,103.74c5.25,13.06,9.18,26.52,11.79,40.19
		C383.85,282.71,382.09,209.41,336.34,163.66z"/>
	<path class="st4" d="M116.97,116.97c-12.7,12.7-23.14,26.8-31.45,41.77c13.77-2.77,27.75-4.19,41.74-4.27
		c3.91-5.01,8.12-9.87,12.73-14.48c60.66-60.66,159.36-60.66,220.01,0c60.66,60.66,60.66,159.36,0,220.01
		c-4.61,4.61-9.46,8.82-14.48,12.73c-0.08,13.99-1.51,27.97-4.27,41.74c14.98-8.3,29.08-18.75,41.77-31.45
		c73.35-73.35,73.35-192.71,0-266.06S190.32,43.61,116.97,116.97z"/>
	<path class="st2" d="M290.13,275.42c-2.74-4.63-5.67-9.16-8.82-13.56l-51.95,51.95c-3.09,3.09-3.09,8.1,0,11.19
		c3.09,3.09,8.1,3.09,11.19,0l25.66-25.66l0,0l0,0c14.8,28.36,20.68,60.93,16.39,93.05c-0.81,6.08-5.67,10.92-11.75,11.74
		c-47.71,6.38-96.43-9.69-130.86-44.12c-34.43-34.43-50.5-83.15-44.12-130.86c0.81-6.08,5.66-10.94,11.74-11.75
		c32.11-4.3,64.68,1.59,93.04,16.38l0,0l0,0L175,259.44c-3.09,3.09-3.09,8.1,0,11.19c3.09,3.09,8.1,3.09,11.19,0l51.95-51.95
		c-4.4-3.15-8.93-6.08-13.56-8.82c-43.02-25.47-95.3-33.26-144.76-20.06c-5.63,1.5-10.03,5.9-11.53,11.53
		c-17.28,64.76,1.37,134.38,48.68,181.69c47.31,47.31,116.93,65.96,181.69,48.68l0,0c5.63-1.5,10.03-5.9,11.53-11.53l0,0
		C323.39,370.72,315.61,318.44,290.13,275.42z"/>
	<path class="st2" d="M194.89,293.92c-3.09,3.09-3.09,8.1,0,11.19c3.09,3.09,8.1,3.09,11.19,0l60.89-60.89
		c-1.78-1.94-3.59-3.86-5.46-5.73c-1.87-1.87-3.79-3.68-5.73-5.46L194.89,293.92z"/>
</g>
</svg>
