<?xml version="1.0" encoding="utf-8"?>
<!-- Generator: Adobe Illustrator 25.2.1, SVG Export Plug-In . SVG Version: 6.00 Build 0)  -->
<svg version="1.1" xmlns="http://www.w3.org/2000/svg" xmlns:xlink="http://www.w3.org/1999/xlink" x="0px" y="0px"
	 viewBox="0 0 680 190.33" style="enable-background:new 0 0 680 190.33;" xml:space="preserve">
<style type="text/css">
	.st0{fill:none;stroke:#221F1F;stroke-miterlimit:10;}
	.st1{fill:#49DB45;}
	.st2{fill:#265DF3;}
	.st3{fill:#131933;}
	.st4{fill:#3CBE3A;}
	.st5{fill:#FFFFFF;}
	.st6{fill:#359E32;}
</style>
<g id="Info">
</g>
<g id="HQ">
	<path class="st4" d="M125.98,61.82C108.31,44.15,80,43.47,61.5,59.76c5.28,1.01,10.48,2.53,15.52,4.56
		c12.97-6.55,29.24-4.42,40.07,6.4s12.95,27.09,6.4,40.07c2.03,5.04,3.55,10.24,4.56,15.52C144.33,107.8,143.65,79.49,125.98,61.82z
		"/>
	<path class="st4" d="M41.25,43.78c-4.9,4.9-8.94,10.35-12.15,16.13c5.32-1.07,10.72-1.62,16.12-1.65c1.51-1.94,3.14-3.81,4.92-5.59
		c23.43-23.43,61.55-23.43,84.98,0c23.43,23.43,23.43,61.55,0,84.98c-1.78,1.78-3.65,3.41-5.59,4.92c-0.03,5.4-0.58,10.8-1.65,16.12
		c5.78-3.21,11.23-7.24,16.13-12.15c28.33-28.33,28.33-74.43,0-102.76S69.58,15.45,41.25,43.78z"/>
	<path class="st2" d="M108.13,104.98c-1.06-1.79-2.19-3.54-3.41-5.24l-20.06,20.06c-1.19,1.19-1.19,3.13,0,4.32
		c1.19,1.19,3.13,1.19,4.32,0l9.91-9.91l0,0l0,0c5.72,10.96,7.99,23.53,6.33,35.94c-0.31,2.35-2.19,4.22-4.54,4.53
		c-18.43,2.47-37.24-3.74-50.54-17.04c-13.3-13.3-19.5-32.12-17.04-50.54c0.31-2.35,2.18-4.22,4.53-4.54
		c12.4-1.66,24.98,0.61,35.94,6.33l0,0l0,0l-9.91,9.91c-1.19,1.19-1.19,3.13,0,4.32c1.19,1.19,3.13,1.19,4.32,0l20.06-20.06
		c-1.7-1.22-3.45-2.35-5.24-3.41C66.2,69.83,46,66.82,26.9,71.92c-2.18,0.58-3.87,2.28-4.45,4.45c-6.68,25.01,0.53,51.9,18.8,70.18
		c18.27,18.27,45.16,25.48,70.18,18.8l0,0c2.17-0.58,3.87-2.28,4.45-4.45l0,0C120.98,141.79,117.97,121.6,108.13,104.98z"/>
	<path class="st2" d="M71.35,112.13c-1.19,1.19-1.19,3.13,0,4.32c1.19,1.19,3.13,1.19,4.32,0l23.52-23.52
		c-0.69-0.75-1.39-1.49-2.11-2.21c-0.72-0.72-1.46-1.42-2.21-2.11L71.35,112.13z"/>
	<g>
		<path class="st2" d="M225.2,113.79h-20.34l-3.37,9.73h-10.76l18.37-51.15h11.93l18.37,51.15h-10.83L225.2,113.79z M222.41,105.59
			l-7.39-21.37l-7.39,21.37H222.41z"/>
		<path class="st2" d="M273.42,72.45v8.27h-21.29v13.1h16.32v8.12h-16.32v21.59h-10.24V72.45H273.42z"/>
		<path class="st2" d="M286.52,115.4h16.83v8.12h-27.08V72.45h10.24V115.4z"/>
		<path class="st2" d="M306.16,76.43c-1.2-1.15-1.79-2.57-1.79-4.28c0-1.71,0.6-3.13,1.79-4.28c1.19-1.15,2.69-1.72,4.5-1.72
			c1.8,0,3.3,0.57,4.5,1.72c1.2,1.15,1.79,2.57,1.79,4.28c0,1.71-0.6,3.14-1.79,4.28c-1.2,1.15-2.7,1.72-4.5,1.72
			C308.86,78.15,307.36,77.58,306.16,76.43z M315.71,82.98v40.54h-10.24V82.98H315.71z"/>
		<path class="st2" d="M338.32,114.08l10.24-31.1h10.9l-15,40.54h-12.44L317.1,82.98h10.98L338.32,114.08z"/>
		<path class="st2" d="M398.25,106.33h-29.64c0.24,2.93,1.27,5.22,3.07,6.88c1.8,1.66,4.02,2.49,6.66,2.49c3.8,0,6.51-1.63,8.12-4.9
			h11.05c-1.17,3.9-3.42,7.11-6.73,9.62c-3.32,2.51-7.39,3.77-12.22,3.77c-3.9,0-7.4-0.87-10.5-2.6c-3.1-1.73-5.51-4.18-7.24-7.35
			c-1.73-3.17-2.6-6.83-2.6-10.98c0-4.2,0.85-7.88,2.56-11.05c1.71-3.17,4.1-5.61,7.17-7.32c3.07-1.71,6.61-2.56,10.61-2.56
			c3.85,0,7.31,0.83,10.35,2.49c3.05,1.66,5.41,4.01,7.1,7.06c1.68,3.05,2.53,6.55,2.53,10.5
			C398.55,103.84,398.45,105.16,398.25,106.33z M387.94,99.45c-0.05-2.63-1-4.74-2.85-6.33c-1.85-1.59-4.12-2.38-6.81-2.38
			c-2.54,0-4.67,0.77-6.4,2.31c-1.73,1.54-2.79,3.67-3.18,6.4H387.94z"/>
		<path class="st2" d="M447.24,72.45v8.27h-13.61v42.81h-10.24V80.71h-13.61v-8.27H447.24z"/>
		<path class="st2" d="M465.72,84.23c2.12-1.22,4.55-1.83,7.28-1.83v10.76h-2.71c-3.22,0-5.65,0.76-7.28,2.27
			c-1.64,1.51-2.45,4.15-2.45,7.9v20.2h-10.24V82.98h10.24v6.29C461.88,87.13,463.6,85.45,465.72,84.23z"/>
		<path class="st2" d="M475.31,92.2c1.63-3.17,3.85-5.61,6.66-7.32c2.8-1.71,5.94-2.56,9.4-2.56c3.02,0,5.67,0.61,7.94,1.83
			c2.27,1.22,4.08,2.76,5.45,4.61v-5.78h10.32v40.54h-10.32v-5.93c-1.32,1.9-3.14,3.48-5.45,4.72c-2.32,1.24-4.99,1.87-8.01,1.87
			c-3.42,0-6.53-0.88-9.33-2.63c-2.81-1.76-5.02-4.23-6.66-7.43c-1.63-3.2-2.45-6.87-2.45-11.01
			C472.85,99.01,473.67,95.38,475.31,92.2z M503.3,96.85c-0.98-1.78-2.29-3.15-3.95-4.1c-1.66-0.95-3.44-1.43-5.34-1.43
			s-3.66,0.46-5.27,1.39c-1.61,0.93-2.92,2.28-3.92,4.06c-1,1.78-1.5,3.89-1.5,6.33c0,2.44,0.5,4.57,1.5,6.4
			c1,1.83,2.32,3.23,3.95,4.21c1.63,0.98,3.38,1.46,5.23,1.46c1.9,0,3.68-0.48,5.34-1.43c1.66-0.95,2.98-2.32,3.95-4.1
			c0.97-1.78,1.46-3.92,1.46-6.4C504.76,100.76,504.27,98.63,503.3,96.85z"/>
		<path class="st2" d="M520.64,92.24c1.71-3.15,4.07-5.59,7.1-7.32c3.02-1.73,6.49-2.6,10.39-2.6c5.02,0,9.18,1.26,12.48,3.77
			c3.29,2.51,5.5,6.04,6.62,10.57h-11.05c-0.58-1.76-1.57-3.13-2.96-4.13c-1.39-1-3.11-1.5-5.16-1.5c-2.93,0-5.25,1.06-6.95,3.18
			c-1.71,2.12-2.56,5.13-2.56,9.04c0,3.85,0.85,6.84,2.56,8.96c1.71,2.12,4.02,3.18,6.95,3.18c4.15,0,6.85-1.85,8.12-5.56h11.05
			c-1.12,4.39-3.34,7.88-6.66,10.46c-3.32,2.59-7.46,3.88-12.44,3.88c-3.9,0-7.37-0.87-10.39-2.6c-3.03-1.73-5.39-4.17-7.1-7.32
			c-1.71-3.15-2.56-6.82-2.56-11.01C518.08,99.06,518.93,95.39,520.64,92.24z"/>
		<path class="st2" d="M584.37,123.52l-13.76-17.27v17.27h-10.24V69.37h10.24v30.81l13.61-17.2h13.32l-17.85,20.34l18,20.2H584.37z"
			/>
		<path class="st2" d="M633.95,106.33h-29.64c0.24,2.93,1.27,5.22,3.07,6.88c1.8,1.66,4.02,2.49,6.66,2.49c3.8,0,6.51-1.63,8.12-4.9
			h11.05c-1.17,3.9-3.42,7.11-6.73,9.62c-3.32,2.51-7.39,3.77-12.22,3.77c-3.9,0-7.4-0.87-10.5-2.6c-3.1-1.73-5.51-4.18-7.24-7.35
			c-1.73-3.17-2.6-6.83-2.6-10.98c0-4.2,0.85-7.88,2.56-11.05c1.71-3.17,4.1-5.61,7.17-7.32c3.07-1.71,6.61-2.56,10.61-2.56
			c3.85,0,7.31,0.83,10.35,2.49c3.05,1.66,5.41,4.01,7.1,7.06s2.53,6.55,2.53,10.5C634.24,103.84,634.14,105.16,633.95,106.33z
			 M623.63,99.45c-0.05-2.63-1-4.74-2.85-6.33c-1.85-1.59-4.12-2.38-6.81-2.38c-2.54,0-4.67,0.77-6.4,2.31
			c-1.73,1.54-2.79,3.67-3.18,6.4H623.63z"/>
		<path class="st2" d="M652.72,84.23c2.12-1.22,4.55-1.83,7.28-1.83v10.76h-2.71c-3.22,0-5.65,0.76-7.28,2.27
			c-1.64,1.51-2.45,4.15-2.45,7.9v20.2h-10.24V82.98h10.24v6.29C648.88,87.13,650.6,85.45,652.72,84.23z"/>
	</g>
</g>
</svg>
